<svg width="21" height="15" viewBox="0 0 21 15" fill="none" xmlns="http://www.w3.org/2000/svg">
<path d="M13.1204 14.931C12.915 14.931 12.7095 14.8553 12.5473 14.6931C12.2338 14.3795 12.2338 13.8605 12.5473 13.5469L18.5376 7.55666L12.5473 1.56639C12.2338 1.25282 12.2338 0.733808 12.5473 0.420237C12.8609 0.106666 13.3799 0.106666 13.6935 0.420237L20.2569 6.98358C20.5704 7.29715 20.5704 7.81616 20.2569 8.12974L13.6935 14.6931C13.5313 14.8553 13.3259 14.931 13.1204 14.931Z" fill="#FEFEFE"/>
<path d="M19.5009 8.36752H1.30299C0.85967 8.36752 0.492035 7.99989 0.492035 7.55656C0.492035 7.11324 0.85967 6.74561 1.30299 6.74561H19.5009C19.9442 6.74561 20.3119 7.11324 20.3119 7.55656C20.3119 7.99989 19.9442 8.36752 19.5009 8.36752Z" fill="#FEFEFE"/>
</svg>
