<svg width="22" height="19" viewBox="0 0 22 19" fill="none" xmlns="http://www.w3.org/2000/svg">
<path d="M14.6591 9.46233C14.6591 11.4858 13.0239 13.121 11.0004 13.121C8.97691 13.121 7.3418 11.4858 7.3418 9.46233C7.3418 7.43882 8.97691 5.80371 11.0004 5.80371C13.0239 5.80371 14.6591 7.43882 14.6591 9.46233Z" stroke="#292D32" stroke-linecap="round" stroke-linejoin="round"/>
<path d="M11 17.9136C14.6076 17.9136 17.9699 15.7879 20.3102 12.1089C21.2299 10.6679 21.2299 8.2458 20.3102 6.80479C17.9699 3.1257 14.6076 1 11 1C7.39243 1 4.03014 3.1257 1.68983 6.80479C0.770057 8.2458 0.770057 10.6679 1.68983 12.1089C4.03014 15.7879 7.39243 17.9136 11 17.9136Z" stroke="#292D32" stroke-linecap="round" stroke-linejoin="round"/>
</svg>
